<svg xmlns="http://www.w3.org/2000/svg" viewBox="0 0 872.51 1003.8"><defs><style>.cls-1{fill:#fff;}</style></defs><g id="Layer_2" data-name="Layer 2"><g id="Layer_1-2" data-name="Layer 1"><polygon class="cls-1" points="491.32 35.77 430.87 0 0 250.54 59.79 284.46 491.32 35.77"/><polygon class="cls-1" points="517.33 51.14 86.46 301.68 146.25 335.61 577.78 86.91 517.33 51.14"/><polygon class="cls-1" points="666.97 138.24 606.52 102.47 175.65 353.01 235.25 386.83 236.38 883.39 264.45 898.71 264.45 404.39 235.5 386.9 666.97 138.24"/><polygon class="cls-1" points="844.02 240.8 783.58 205.03 352.83 455.5 324.79 438.22 756.07 189.66 695.62 153.9 264.74 404.44 324.25 438.2 325.36 934.53 352.88 949.85 352.88 455.67 412.5 489.5 844.02 240.8"/><polygon class="cls-1" points="59.73 780.54 86.16 795.86 86.16 301.55 58.66 283.9 59.73 780.54"/><polygon class="cls-1" points="147.66 832.25 175.72 847.57 175.72 353.25 146.53 335.61 147.66 832.25"/><polygon class="cls-1" points="441.24 506.54 441.24 1003.8 871.92 754.99 872.51 258.31 441.24 506.54"/></g></g></svg>