<svg width="250" height="250" viewBox="0 0 250 250" fill="none" xmlns="http://www.w3.org/2000/svg">
<mask id="mask0_144_9" style="mask-type:alpha" maskUnits="userSpaceOnUse" x="0" y="0" width="250" height="250">
<circle cx="125" cy="125" r="125" fill="#315A88"/>
</mask>
<g mask="url(#mask0_144_9)">
<circle cx="125" cy="125" r="125" fill="#315A88"/>
<mask id="mask1_144_9" style="mask-type:alpha" maskUnits="userSpaceOnUse" x="-7" y="26" width="261" height="254">
<g clip-path="url(#clip0_144_9)">
<path d="M174.796 92.4481L165.007 100.369V88.8161C165.007 88.8161 150.927 76.6292 148.146 70.7217C133.108 75.5942 116.914 75.5942 101.876 70.7217C99.2842 74.8573 96.1382 78.6191 92.5255 81.9022C88.6934 85.7093 85.1897 88.7943 85.1897 88.7943V93.739C78.489 93.4108 72.8394 93.1264 72.5109 93.0389C72.1825 92.9514 75.1167 60.9635 82.8905 54.9466C90.6642 48.9297 90.6423 47.6169 90.6423 47.6169L100.343 34.3579L102.073 42.2345L110.591 32.2137L111.336 39.8715L120.555 25.978L125.898 37.7711L130.431 28.4504L134.81 37.5961L138.642 29.1943L143.876 41.7969L146.066 34.9049L157.015 48.0326C157.015 48.0326 164.942 49.8486 169.891 60.1977C174.839 70.5467 174.796 92.4481 174.796 92.4481Z" fill="#4D4D4D"/>
<path d="M254 280L234.905 224.404C232.002 215.974 227.1 208.371 220.617 202.244C214.135 196.118 206.265 191.65 197.679 189.222C178.956 183.927 158.985 180.229 153.117 179.201L153.423 179.529L143.109 188.062C138.055 192.242 131.722 194.569 125.162 194.656C118.601 194.744 112.208 192.587 107.044 188.543L95.4817 179.529L95.854 179.135C90.2043 180.098 68.9197 183.883 49.2554 189.353C40.6639 191.769 32.7877 196.233 26.3035 202.361C19.8193 208.489 14.921 216.099 12.0291 224.535L-7.02197 280H254Z" fill="#4D4D4D"/>
<path d="M155.263 177.669C151.584 174.103 149.307 164.148 148.256 155.265C148.08 153.799 147.949 152.377 147.84 150.889L147.73 149.27C145.401 151.021 142.873 152.49 140.197 153.645H142.913C142.913 154.849 143.175 156.271 143.394 157.824C144.336 164.673 146.285 174.19 150.183 179.529C147.26 183.494 143.457 186.727 139.072 188.974C134.687 191.222 129.84 192.422 124.913 192.482H124.475C119.474 192.488 114.542 191.317 110.079 189.062C105.616 186.808 101.748 183.535 98.7885 179.507C102.796 173.994 104.745 164.082 105.664 157.19C105.84 155.877 105.971 154.696 106.059 153.645H110.263C107.195 152.319 104.322 150.582 101.723 148.482H101.372L101.197 150.845C101.197 151.961 101.022 153.033 100.891 154.258C99.8834 163.338 97.5622 173.95 93.7739 177.516L92.1973 179.048L93.9491 181.586C97.3659 186.553 101.944 190.611 107.286 193.41C112.629 196.209 118.574 197.662 124.606 197.645H125.11C131.215 197.573 137.208 195.996 142.556 193.053C147.904 190.11 152.442 185.893 155.767 180.776L156.927 179.004L155.263 177.669Z" fill="#4D4D4D"/>
<path d="M166.803 86.8472C162.993 83.5871 152.679 74.0695 150.577 69.628L149.591 67.5713L147.402 68.2715C132.876 72.9753 117.234 72.9753 102.708 68.2715L100.518 67.5713L99.5548 69.628C97.5402 74.0039 87.292 83.4997 83.4818 86.8254L82.584 87.4598V124.283C83.4961 130.663 85.7338 136.782 89.1533 142.246C92.1271 147.04 96.046 151.179 100.672 154.411C102.208 155.509 103.826 156.49 105.511 157.343C111.46 160.332 117.942 162.116 124.584 162.594H125.591C131.758 162.152 137.791 160.587 143.394 157.978C145.079 157.194 146.704 156.287 148.256 155.265C153.426 151.881 157.785 147.398 161.022 142.137C164.441 136.672 166.679 130.554 167.591 124.174V87.5255L166.803 86.8472ZM162.423 123.867C161.572 129.418 159.589 134.735 156.599 139.489C152.724 145.839 146.98 150.836 140.153 153.799C135.41 155.827 130.364 157.062 125.219 157.453H125.022C119.897 157.069 114.872 155.834 110.153 153.799C107.086 152.472 104.213 150.735 101.613 148.635C94.1567 142.324 89.2467 133.523 87.7957 123.867V89.9541C90.7519 87.3067 99.4453 79.3206 103.124 73.807C117.421 78.002 132.623 78.002 146.92 73.807C150.642 79.4082 159.38 87.3286 162.38 89.976L162.423 123.867Z" fill="#4D4D4D"/>
<path d="M85.2556 120.432C77.3724 119.885 76.4965 116.188 76.4965 112.03C76.4965 107.873 75.095 103.279 72.4892 93.0609C69.8834 82.8431 83.9636 88.1161 83.9636 88.1161L85.168 91.0917L85.2556 120.432Z" fill="#4D4D4D"/>
<path d="M176.284 93.0608C173.679 103.257 172.102 107.72 172.277 112.03C172.43 115.903 171.62 119.404 165.095 120.279V88.8162L164.657 88.4662L164.788 88.1161C164.788 88.1161 178.868 82.865 176.284 93.0608Z" fill="#4D4D4D"/>
<path d="M145.978 155.418C145.978 155.418 136.059 172.659 111.051 170.493L105.227 190.534L95.5039 179.595L103.3 153.974C103.3 153.974 126.796 164.257 145.978 155.418Z" fill="#4D4D4D"/>
</g>
</mask>
<g mask="url(#mask1_144_9)">
<circle cx="125" cy="125" r="125" fill="#1A2A50"/>
</g>
</g>
<defs>
<clipPath id="clip0_144_9">
<rect width="261" height="254" fill="white" transform="translate(-7 26)"/>
</clipPath>
</defs>
</svg>
