<svg width="250" height="250" viewBox="0 0 250 250" fill="none" xmlns="http://www.w3.org/2000/svg">
<circle cx="125" cy="125" r="125" fill="#315A88"/>
<mask id="mask0_143_2" style="mask-type:alpha" maskUnits="userSpaceOnUse" x="15" y="37" width="221" height="213">
<g clip-path="url(#clip0_143_2)">
<path d="M83.376 185.487C81.1229 181.158 79.6709 176.46 79.0896 171.618C89.6838 169.251 98.7057 167.667 101.888 167.126C106.099 162.578 107.84 151.096 108.439 145C94.4568 135.997 92.8097 120.172 92.8097 120.172V90.1801C104.932 84.0589 115.95 75.9775 125.416 66.2648L160.98 89.3785V120.172C160.98 120.172 159.276 136.817 144.283 145.672C144.938 151.935 146.717 162.82 150.797 167.164L151.022 167.406C154.765 168.021 161.653 169.177 168.972 170.78C168.481 175.913 167.007 180.906 164.63 185.487H185.799C185.163 181.964 184.526 178.236 183.928 174.303C179.866 149.866 176.103 128.094 175.43 103.228C173.371 25.8346 135.318 34.6699 122.533 40.8025C116.637 38.0438 77.4799 24.6229 73.7364 93.703C72.2951 120.396 67.4098 148.169 62.2624 175.719C61.6385 179.099 61.0145 182.337 60.3906 185.431L83.376 185.487Z" fill="#4D4D4D"/>
<path d="M236 250L220.727 205.693C218.248 198.511 214.058 192.034 208.517 186.817C202.975 181.6 196.246 177.799 188.906 175.738C187.222 175.253 185.537 174.806 183.834 174.359C178.705 172.998 173.595 171.805 168.86 170.78C166.801 192.458 147.447 209.458 123.937 209.458C100.652 209.458 81.4855 192.906 79.0147 171.619C73.624 172.812 67.7841 174.21 62.1688 175.775H61.888C54.5597 177.833 47.8441 181.635 42.3202 186.854C36.7962 192.072 32.6298 198.551 30.1802 205.73L14.9814 250H236Z" fill="#4D4D4D"/>
<path d="M109.337 177.006L82.7019 184.201C80.8221 180.229 79.6021 175.98 79.0894 171.619C89.6836 169.251 98.7055 167.667 101.888 167.126L102.075 166.921L102.58 167.108L109.337 177.006Z" fill="#4D4D4D"/>
<path d="M92.8096 117.115C86.0712 116.649 85.3225 113.499 85.3225 109.957C85.3225 106.416 84.1246 102.501 81.8972 93.7963C79.6698 85.0914 91.724 89.5837 91.724 89.5837L92.7534 92.1187L92.8096 117.115Z" fill="#4D4D4D"/>
<path d="M170.619 93.7964C168.391 102.483 167.044 106.285 167.193 109.957C167.324 113.257 166.632 116.239 161.054 116.985V90.1802L160.68 89.8819L160.792 89.5837C160.792 89.5837 172.827 85.0542 170.619 93.7964Z" fill="#4D4D4D"/>
<path d="M127.287 153.053H126.651C109.712 151.618 100.839 142.838 96.3658 135.699C93.4393 131.052 91.5262 125.845 90.7505 120.414V89.0429V88.6701L92.173 88.1109C92.3602 88.1109 111.845 80.3007 122.739 65.2582L123.956 63.5806L163.45 88.1668V120.395C162.674 125.826 160.761 131.033 157.835 135.68C153.099 142.838 144.227 151.599 127.287 153.034V153.053ZM126.932 148.635H127.1C139.192 147.591 148.214 142.447 153.923 133.35C156.468 129.294 158.161 124.767 158.902 120.041V90.6087L124.929 69.4708C114.84 82.3138 99.6975 89.5835 94.9807 91.6152V120.041C95.2801 122.073 98.7804 146.212 126.838 148.635H126.932Z" fill="#4D4D4D"/>
<path d="M153.904 167.853L152.65 165.877C149.169 162.485 147.147 152.419 146.398 144.329C145.75 144.802 145.057 145.249 144.321 145.671C143.647 146.063 142.936 146.454 142.206 146.808C142.206 147.144 142.206 147.498 142.337 147.871C129.815 152.4 115.851 148.412 110.517 146.51C110.517 146.51 110.517 146.324 110.517 146.231C109.787 145.839 109.094 145.429 108.42 145C107.746 144.572 106.998 144.031 106.324 143.528C105.65 151.748 103.61 162.373 100.016 165.896L98.7432 167.126H101.663L101.551 167.48L109.244 177.08L114.859 159.782C130.208 161.105 138.911 153.91 142.599 149.735C143.404 155.327 144.976 162.671 147.971 167.126L153.904 167.853Z" fill="#4D4D4D"/>
<path d="M109.337 177.006L82.7019 184.201C80.8221 180.229 79.6021 175.98 79.0894 171.619C89.6836 169.251 97.152 167.35 100.334 166.81C100.334 166.81 102.019 166.996 102.075 166.921L102.58 167.108L109.337 177.006Z" fill="#4D4D4D"/>
</g>
</mask>
<g mask="url(#mask0_143_2)">
<circle cx="125" cy="125" r="125" fill="#1A2A50"/>
</g>
<defs>
<clipPath id="clip0_143_2">
<rect width="221" height="213" fill="white" transform="translate(15 37)"/>
</clipPath>
</defs>
</svg>
