<svg width="104" height="141" viewBox="0 0 104 141" fill="none" xmlns="http://www.w3.org/2000/svg">
<g clip-path="url(#clip0_63_522)">
<path d="M5.01231 109.163C4.59147 109.157 4.17382 109.236 3.78345 109.393C3.39308 109.551 3.03778 109.785 2.73828 110.082C2.43878 110.378 2.201 110.732 2.03872 111.121C1.87643 111.51 1.79293 111.928 1.79297 112.35V137.812C1.79293 138.234 1.87643 138.652 2.03872 139.042C2.201 139.431 2.43878 139.784 2.73828 140.081C3.03778 140.377 3.39308 140.611 3.78345 140.769C4.17382 140.927 4.59147 141.005 5.01231 141H44.0531C44.9 141 45.7128 140.665 46.3154 140.069C46.918 139.472 47.2619 138.661 47.2726 137.812V112.35C47.2619 111.501 46.918 110.69 46.3154 110.094C45.7128 109.497 44.9 109.163 44.0531 109.163H5.01231Z" fill="white"/>
<path d="M45.072 137.567H3.91211V111.165H45.072V137.567Z" fill="#42206E"/>
<path d="M25.9187 139.897H23.1475C23.0282 139.924 22.9042 139.924 22.7849 139.897C22.6655 139.869 22.5539 139.815 22.4582 139.739C22.3625 139.662 22.2852 139.565 22.2321 139.454C22.179 139.344 22.1514 139.222 22.1514 139.1C22.1514 138.977 22.179 138.856 22.2321 138.745C22.2852 138.634 22.3625 138.537 22.4582 138.461C22.5539 138.384 22.6655 138.33 22.7849 138.303C22.9042 138.275 23.0282 138.275 23.1475 138.303H25.9187C26.0239 138.303 26.128 138.324 26.2247 138.365C26.3214 138.407 26.4087 138.468 26.4812 138.544C26.5536 138.621 26.6098 138.711 26.6462 138.81C26.6826 138.909 26.6985 139.015 26.693 139.12C26.693 139.326 26.6115 139.524 26.4663 139.669C26.321 139.815 26.124 139.897 25.9187 139.897Z" fill="#42206E"/>
<path d="M38.3072 99.2314C37.3739 99.2314 36.4782 99.6004 35.8145 100.258C35.1507 100.916 34.7724 101.81 34.7617 102.746V130.905C34.7617 131.848 35.1353 132.753 35.8002 133.42C36.4651 134.086 37.3668 134.461 38.3072 134.461H81.5047C81.9737 134.466 82.4391 134.378 82.8739 134.202C83.3088 134.026 83.7045 133.765 84.038 133.434C84.3716 133.103 84.6364 132.71 84.8172 132.276C84.9979 131.841 85.0909 131.376 85.0909 130.905V102.746C85.0856 102.279 84.9886 101.818 84.8055 101.389C84.6224 100.959 84.3567 100.57 84.0237 100.244C83.6907 99.9175 83.2968 99.6601 82.8646 99.4864C82.4324 99.3127 81.9703 99.226 81.5047 99.2314H38.3072Z" fill="white"/>
<path d="M81.8712 131.641H37.8994V102.051H81.8712V131.641Z" fill="#42206E"/>
<path d="M33.0503 137.771C33.061 138.631 33.4092 139.453 34.0195 140.057C34.6297 140.661 35.4529 141 36.3106 141H83.5017C83.9299 141.005 84.3549 140.926 84.7525 140.767C85.1501 140.608 85.5125 140.371 85.819 140.071C86.1256 139.772 86.3702 139.414 86.539 139.02C86.7078 138.625 86.7973 138.201 86.8027 137.771V135.483H33.0503V137.771Z" fill="white"/>
<path d="M53.2632 136.259H66.5077V138.262H53.2632V136.259Z" fill="#42206E"/>
<path d="M90.1442 113.454H75.7587C75.3765 113.454 75.0094 113.603 74.7354 113.87C74.4614 114.137 74.3021 114.501 74.2915 114.884V139.406C74.3021 139.789 74.4614 140.153 74.7354 140.42C75.0094 140.687 75.3765 140.837 75.7587 140.837H90.1442C90.5264 140.837 90.8935 140.687 91.1675 140.42C91.4415 140.153 91.6006 139.789 91.6113 139.406V114.884C91.6006 114.501 91.4415 114.137 91.1675 113.87C90.8935 113.603 90.5264 113.454 90.1442 113.454Z" fill="white"/>
<path d="M84.1129 140.183H81.8308C81.6647 140.183 81.5047 140.12 81.3835 140.006C81.2624 139.892 81.1891 139.736 81.1787 139.57C81.1787 139.396 81.2475 139.23 81.3697 139.107C81.492 138.985 81.6578 138.916 81.8308 138.916H84.1129C84.2787 138.926 84.4342 139 84.5478 139.121C84.6614 139.243 84.7245 139.403 84.7241 139.57C84.7241 139.732 84.6598 139.888 84.5452 140.003C84.4305 140.118 84.275 140.183 84.1129 140.183Z" fill="#42206E"/>
<path d="M90.1444 137.894H75.7588V115.17H90.1444V137.894Z" fill="#42206E"/>
<path d="M4.93096 21.6609C5.59459 21.6945 6.2447 21.4646 6.74049 21.0209C7.23628 20.5772 7.53782 19.9555 7.57984 19.2905V10.5035L14.3855 8.99133V15.1627C14.0624 15.1008 13.7305 15.1008 13.4074 15.1627C12.9452 15.2101 12.5067 15.3907 12.1447 15.6828C11.7827 15.9749 11.5129 16.3659 11.3678 16.8085C11.2227 17.2511 11.2087 17.7264 11.3272 18.1769C11.4458 18.6274 11.692 19.0338 12.036 19.3469C12.38 19.6601 12.8071 19.8665 13.2656 19.9414C13.7242 20.0163 14.1946 19.9563 14.6198 19.7688C15.0451 19.5812 15.4071 19.2741 15.662 18.8846C15.917 18.4951 16.054 18.0399 16.0564 17.574V5.68091L5.94977 7.92875V17.247C5.613 17.1848 5.26773 17.1848 4.93096 17.247C4.30409 17.247 3.70287 17.4967 3.25961 17.9413C2.81634 18.3858 2.56738 18.9888 2.56738 19.6174C2.56738 20.2461 2.81634 20.8491 3.25961 21.2936C3.70287 21.7382 4.30409 21.9879 4.93096 21.9879" fill="white"/>
<path d="M93.0785 5.88525H82.4014C82.1204 5.88525 81.8508 5.99723 81.6521 6.1965C81.4534 6.39578 81.3418 6.66602 81.3418 6.94784V25.2574C81.3418 25.5392 81.4534 25.8095 81.6521 26.0088C81.8508 26.2081 82.1204 26.32 82.4014 26.32H93.0785C93.3634 26.3202 93.6373 26.2096 93.8425 26.0114C94.0477 25.8132 94.1682 25.5429 94.1788 25.2574V6.94784C94.1682 6.66232 94.0477 6.39207 93.8425 6.19388C93.6373 5.9957 93.3634 5.88506 93.0785 5.88525ZM88.5957 25.707H86.9248C86.8626 25.7127 86.8 25.7053 86.7408 25.6853C86.6816 25.6652 86.6273 25.633 86.5812 25.5907C86.5352 25.5483 86.4984 25.4968 86.4734 25.4394C86.4484 25.382 86.4356 25.32 86.4358 25.2574C86.4358 25.1273 86.4874 25.0026 86.5791 24.9107C86.6708 24.8187 86.7951 24.767 86.9248 24.767H88.5957C88.7254 24.767 88.8499 24.8187 88.9416 24.9107C89.0333 25.0026 89.0847 25.1273 89.0847 25.2574C89.085 25.32 89.0722 25.382 89.0472 25.4394C89.0221 25.4968 88.9854 25.5483 88.9393 25.5907C88.8933 25.633 88.839 25.6652 88.7798 25.6853C88.7206 25.7053 88.6579 25.7127 88.5957 25.707ZM93.0785 23.9904H82.4014V6.70263H93.0785V23.9904Z" fill="white"/>
<path d="M43.8495 59.547L43.605 57.1766H51.4295C51.679 57.1821 51.9272 57.1375 52.1594 57.0454C52.3915 56.9534 52.603 56.8157 52.7814 56.6406C52.9599 56.4655 53.1016 56.2564 53.1983 56.0256C53.2951 55.7948 53.3449 55.547 53.3448 55.2966V50.6375H46.4169C45.916 50.6268 45.4392 50.4197 45.0888 50.0606C44.7383 49.7015 44.5422 49.219 44.5423 48.7166V45.9375H39.326C38.825 45.9374 38.3439 46.1341 37.9858 46.4855C37.6278 46.837 37.4213 47.3151 37.4106 47.8175V55.3784C37.4106 55.6287 37.4604 55.8766 37.5571 56.1074C37.6539 56.3382 37.7956 56.5473 37.974 56.7224C38.1524 56.8975 38.3639 57.0351 38.5961 57.1271C38.8283 57.2192 39.0764 57.2638 39.326 57.2583H40.9969L43.8495 59.6288" fill="white"/>
<path d="M59.0908 38.6626H46.8651C46.3641 38.6625 45.883 38.8592 45.5249 39.2106C45.1669 39.5621 44.9604 40.0402 44.9497 40.5426V48.1035C44.9497 48.6129 45.1515 49.1015 45.5107 49.4617C45.8699 49.8219 46.3571 50.0243 46.8651 50.0243H54.6895L54.445 52.3947L57.2977 50.0243H59.0092C59.5101 50.0136 59.9869 49.8065 60.3373 49.4474C60.6877 49.0883 60.884 48.6059 60.8839 48.1035V40.5426C60.8735 40.0472 60.6726 39.5751 60.3232 39.2247C59.9739 38.8744 59.5031 38.673 59.0092 38.6626H59.0908ZM49.2287 47.8173C48.8828 47.8173 48.5512 47.6796 48.3066 47.4343C48.062 47.189 47.9245 46.8564 47.9245 46.5095C47.9245 46.1627 48.062 45.83 48.3066 45.5848C48.5512 45.3395 48.8828 45.2017 49.2287 45.2017C49.5745 45.2017 49.9063 45.3395 50.1508 45.5848C50.3954 45.83 50.5328 46.1627 50.5328 46.5095C50.5334 46.8427 50.4073 47.1635 50.1801 47.4066C49.9529 47.6496 49.6418 47.7965 49.3102 47.8173H49.2287ZM53.1002 47.8173C52.7543 47.8173 52.4226 47.6796 52.178 47.4343C51.9334 47.189 51.7961 46.8564 51.7961 46.5095C51.7961 46.1627 51.9334 45.83 52.178 45.5848C52.4226 45.3395 52.7543 45.2017 53.1002 45.2017C53.446 45.2017 53.7777 45.3395 54.0222 45.5848C54.2668 45.83 54.4043 46.1627 54.4043 46.5095C54.4049 46.8427 54.2788 47.1635 54.0516 47.4066C53.8244 47.6496 53.5132 47.7965 53.1816 47.8173H53.1002ZM56.9716 47.8173C56.6257 47.8173 56.2941 47.6796 56.0495 47.4343C55.805 47.189 55.6676 46.8564 55.6676 46.5095C55.6676 46.1627 55.805 45.83 56.0495 45.5848C56.2941 45.3395 56.6257 45.2017 56.9716 45.2017C57.3174 45.2017 57.6492 45.3395 57.8938 45.5848C58.1383 45.83 58.2757 46.1627 58.2757 46.5095C58.2763 46.8427 58.1502 47.1635 57.923 47.4066C57.6958 47.6496 57.3847 47.7965 57.0532 47.8173H56.9716Z" fill="white"/>
<path d="M82.1973 48.7984C82.5753 48.8038 82.9507 48.7338 83.3015 48.5925C83.6523 48.4512 83.9716 48.2413 84.2408 47.9751C84.5101 47.7089 84.7239 47.3917 84.8698 47.0419C85.0157 46.6921 85.0908 46.3167 85.0908 45.9376V38.3767L78.2851 32.7776C78.0442 32.5782 77.7416 32.4692 77.4293 32.4692C77.117 32.4692 76.8143 32.5782 76.5734 32.7776L69.7271 38.3767V45.8967C69.727 46.2758 69.8021 46.6512 69.948 47.001C70.094 47.3508 70.3077 47.668 70.577 47.9342C70.8462 48.2004 71.1655 48.4102 71.5163 48.5516C71.8671 48.6929 72.2425 48.7629 72.6206 48.7575H74.2098V44.4253C74.2098 43.569 74.549 42.7478 75.1528 42.1423C75.7565 41.5368 76.5755 41.1967 77.4293 41.1967C78.2832 41.1967 79.1019 41.5368 79.7057 42.1423C80.3095 42.7478 80.6487 43.569 80.6487 44.4253V48.7575H82.1973" fill="white"/>
<path d="M68.9936 38.0497L76.4106 32.0828C76.6712 31.8493 76.9997 31.706 77.3478 31.6741C77.7124 31.6872 78.0599 31.8324 78.3259 32.0828L85.7021 38.1723C86.0043 38.2909 86.3391 38.296 86.6447 38.1866C86.9503 38.0771 87.206 37.8604 87.3649 37.5766C87.5237 37.2929 87.5749 36.9611 87.509 36.6424C87.4431 36.3237 87.2645 36.0398 87.0062 35.8428L77.9998 28.6906C77.7849 28.6442 77.5627 28.6442 77.3478 28.6906C77.1335 28.6386 76.9101 28.6386 76.6959 28.6906L67.7303 35.7202C67.576 35.8016 67.4396 35.9131 67.3291 36.0483C67.2185 36.1834 67.1361 36.3394 67.0867 36.5071C67.0373 36.6747 67.0219 36.8506 67.0414 37.0243C67.061 37.198 67.1151 37.366 67.2005 37.5184C67.3723 37.8229 67.6554 38.0486 67.99 38.1477C68.3245 38.2468 68.6844 38.2117 68.9936 38.0497Z" fill="white"/>
<path d="M42.5455 89.627V81.9844H41.7305V89.627H42.5455Z" fill="white"/>
<path d="M44.5421 89.341C44.5421 89.341 44.7865 89.341 44.9903 89.341C45.791 89.0631 46.4855 88.5418 46.977 87.8495C47.4686 87.1573 47.7327 86.3286 47.7327 85.4788C47.7327 84.6291 47.4686 83.8004 46.977 83.1082C46.4855 82.416 45.791 81.8946 44.9903 81.6167C44.9903 81.6167 44.5828 81.6167 44.5421 81.6167V82.1071C44.5421 82.1071 44.5421 82.3523 44.7866 82.4341C45.3723 82.6865 45.8714 83.1056 46.222 83.6395C46.5727 84.1734 46.7595 84.7987 46.7595 85.438C46.7595 86.0773 46.5727 86.7026 46.222 87.2365C45.8714 87.7704 45.3723 88.1895 44.7866 88.4419C44.7866 88.4419 44.5013 88.4419 44.5421 88.7689C44.5828 89.0958 44.5421 89.0958 44.5421 89.2593" fill="white"/>
<path d="M44.0127 87.9105H44.5425C45.0349 87.6989 45.4532 87.3447 45.7436 86.8933C46.034 86.4418 46.1834 85.9137 46.1726 85.3766C46.1864 84.844 46.0377 84.3199 45.7464 83.8744C45.4551 83.4288 45.035 83.0832 44.5425 82.8835H44.2165V83.2105C44.1949 83.2551 44.1836 83.304 44.1836 83.3536C44.1836 83.4031 44.1949 83.452 44.2165 83.4966C44.5669 83.6363 44.8671 83.8788 45.0779 84.1923C45.2887 84.5059 45.4004 84.8758 45.3983 85.254C45.403 85.6378 45.293 86.0143 45.0824 86.3348C44.8717 86.6554 44.5701 86.9053 44.2165 87.0523C44.1984 87.0906 44.1889 87.1325 44.1889 87.1749C44.1889 87.2173 44.1984 87.2591 44.2165 87.2975V87.5835" fill="white"/>
<path d="M43.4825 86.3167C43.425 86.3264 43.3728 86.3565 43.3354 86.4015C43.298 86.4465 43.278 86.5034 43.2788 86.5619H43.5641C43.8477 86.4517 44.0913 86.2581 44.2632 86.0064C44.4351 85.7548 44.5271 85.457 44.5271 85.1519C44.5271 84.8469 44.4351 84.549 44.2632 84.2974C44.0913 84.0458 43.8477 83.8522 43.5641 83.7419H43.2788C43.2847 83.7985 43.3071 83.852 43.3434 83.8957C43.3797 83.9393 43.4281 83.9712 43.4825 83.9872C43.6337 84.0549 43.7634 84.1633 43.8569 84.3003C43.9504 84.4374 44.0042 84.5978 44.0123 84.7637C44.0118 84.9366 43.9615 85.1056 43.8676 85.2506C43.7736 85.3956 43.6399 85.5103 43.4825 85.5811" fill="white"/>
<path d="M36.7992 90.567H38.5923L37.6142 87.1339H37.7365L38.5923 87.7061L41.4857 89.627V81.9844L38.5923 83.8644L37.7365 84.4774H35.4136V87.1339H35.7803L36.7992 90.567Z" fill="white"/>
<path d="M32.6174 8.05701C34.3478 6.88899 36.3844 6.26133 38.4702 6.25325C39.8597 6.24787 41.2365 6.5177 42.5218 7.04725C43.8071 7.57679 44.9755 8.35565 45.9599 9.33911C46.9444 10.3226 47.7255 11.4913 48.2585 12.7783C48.7914 14.0652 49.0657 15.4449 49.0657 16.8385C49.0657 18.9303 48.4478 20.9752 47.2898 22.715C46.1318 24.4548 44.4858 25.8116 42.5595 26.6139C40.6332 27.4163 38.513 27.6283 36.4667 27.2232C34.4203 26.818 32.5397 25.814 31.062 24.3377C29.5842 22.8614 28.5757 20.9791 28.1639 18.9285C27.752 16.8778 27.9552 14.7508 28.7479 12.8159C29.5405 10.881 30.887 9.22503 32.6174 8.05701Z" fill="white"/>
<path d="M54.7305 69.56V70.2548H53.834V79.2461H68.7494V70.2548H65.3668V69.7643H66.7117V66.74H61.1287V69.7643H62.4328V70.2548H56.7682V69.56H54.6083H54.7305ZM61.4547 67.1078H66.1411V68.2521H61.4547V67.1078ZM63.7776 71.1948C64.4627 71.1948 65.1324 71.3985 65.702 71.7802C66.2717 72.1619 66.7157 72.7045 66.9779 73.3393C67.2401 73.974 67.3087 74.6725 67.175 75.3464C67.0413 76.0203 66.7114 76.6392 66.227 77.1251C65.7425 77.6109 65.1253 77.9418 64.4534 78.0758C63.7814 78.2099 63.0849 78.1411 62.4519 77.8782C61.819 77.6152 61.278 77.17 60.8974 76.5987C60.5167 76.0274 60.3136 75.3558 60.3136 74.6687C60.2965 74.1918 60.3776 73.7164 60.5518 73.2723C60.7259 72.8282 60.9895 72.4249 61.3259 72.0874C61.6624 71.75 62.0646 71.4857 62.5074 71.311C62.9503 71.1363 63.4243 71.055 63.8998 71.0722L63.7776 71.1948ZM58.1129 72.4617H55.3826V71.3583H58.1129V72.4617Z" fill="white"/>
<path d="M63.8998 76.6305C64.2015 76.6913 64.5127 76.6842 64.8113 76.6097C65.1099 76.5352 65.3883 76.3951 65.6263 76.1996C65.8643 76.0041 66.0561 75.758 66.1878 75.4791C66.3195 75.2003 66.3878 74.8956 66.3878 74.587C66.3878 74.2785 66.3195 73.9737 66.1878 73.6949C66.0561 73.416 65.8643 73.17 65.6263 72.9745C65.3883 72.779 65.1099 72.6389 64.8113 72.5644C64.5127 72.4899 64.2015 72.4828 63.8998 72.5436C63.4291 72.6384 63.0057 72.8938 62.7014 73.2663C62.3972 73.6389 62.231 74.1055 62.231 74.587C62.231 75.0685 62.3972 75.5352 62.7014 75.9077C63.0057 76.2803 63.4291 76.5356 63.8998 76.6305Z" fill="white"/>
<path d="M75.7178 66.0044V74.587H94.5047V66.0044H75.7178ZM92.5077 66.2905H93.0375V66.9853H92.5077V66.2905ZM91.6112 66.2905H92.141V66.9853H91.6112V66.2905ZM90.7146 66.2905H91.2444V66.9853H90.7146V66.2905ZM89.8181 66.2905H90.3072V66.9853H89.8181V66.2905ZM88.0251 66.2905H88.5141V66.9853H88.0251V66.2905ZM87.0877 66.2905H87.6175V66.9853H87.0877V66.2905ZM86.1912 66.2905H86.721V66.9853H86.1912V66.2905ZM85.2946 66.2905H85.8244V66.9853H85.2946V66.2905ZM84.398 66.2905H84.9278V66.9853H84.398V66.2905ZM83.5015 66.2905H84.0313V66.9853H83.5015V66.2905ZM82.6049 66.2905H83.1347V66.9853H82.6049V66.2905ZM81.7084 66.2905H82.1974V66.9853H81.7084V66.2905ZM80.8118 66.2905H81.2194V66.9853H80.7304L80.8118 66.2905ZM78.978 66.2905H79.5077V66.9853H78.978V66.2905ZM78.0815 66.2905H78.6112V66.9853H78.0815V66.2905ZM77.1849 66.2905H77.7147V66.9853H77.1441L77.1849 66.2905ZM76.2884 66.2905H76.8182V66.9853H76.2884V66.2905ZM76.2884 67.1487H79.9561V73.4018H76.2884V67.1487ZM76.8182 74.3009H76.2884V73.7696H76.8182V74.3009ZM77.7147 74.3009H77.1441V73.7696H77.6739L77.7147 74.3009ZM78.6112 74.3009H78.0815V73.7696H78.6112V74.3009ZM79.5077 74.3009H78.978V73.7696H79.5077V74.3009ZM80.4043 74.3009H79.9153V73.7696H80.4043V74.3009ZM80.4043 66.8218H79.9153V66.2905H80.4043V66.8218ZM80.6488 67.1487H89.0439V73.4018H80.6488V67.1487ZM81.3008 74.3009H80.8118V73.7696H81.2194L81.3008 74.3009ZM82.1974 74.3009H81.7084V73.7696H82.1974V74.3009ZM83.1347 74.3009H82.6049V73.7696H83.1347V74.3009ZM84.0313 74.3009H83.5015V73.7696H84.0313V74.3009ZM84.9278 74.3009H84.398V73.7696H84.9278V74.3009ZM85.8244 74.3009H85.2946V73.7696H85.8244V74.3009ZM86.721 74.3009H86.1912V73.7696H86.721V74.3009ZM87.6175 74.3009H87.0877V73.7696H87.6175V74.3009ZM88.5141 74.3009H88.0251V73.7696H88.5141V74.3009ZM89.4106 74.3009H88.9216V73.7696H89.3698L89.4106 74.3009ZM89.4106 66.8218H88.9216V66.2905H89.3698L89.4106 66.8218ZM90.3072 74.3009H89.8181V73.7696H90.3072V74.3009ZM91.2444 74.3009H90.7146V73.7696H91.2444V74.3009ZM92.141 74.3009H91.6112V73.7696H92.141V74.3009ZM93.0375 74.3009H92.5077V73.7696H93.0375V74.3009ZM93.9341 74.3009H93.4451V73.7696H93.9749L93.9341 74.3009ZM93.9341 73.4018H89.8588V66.9853H93.9341V73.4018ZM93.9341 66.8218H93.4451V66.2905H93.9749L93.9341 66.8218Z" fill="white"/>
<path d="M83.7866 68.6201V71.9714L85.2537 71.154L86.7208 70.2958L85.2537 69.4784L83.7866 68.6201Z" fill="white"/>
<path d="M84.8462 67.7209C84.1653 67.7209 83.5122 67.9922 83.0307 68.4751C82.5492 68.958 82.2788 69.6129 82.2788 70.2957C82.2788 70.9786 82.5492 71.6335 83.0307 72.1164C83.5122 72.5993 84.1653 72.8706 84.8462 72.8706C85.5271 72.8706 86.1801 72.5993 86.6616 72.1164C87.1431 71.6335 87.4135 70.9786 87.4135 70.2957C87.4135 69.6129 87.1431 68.958 86.6616 68.4751C86.1801 67.9922 85.5271 67.7209 84.8462 67.7209ZM84.8462 72.5844C84.3967 72.5764 83.9595 72.4353 83.5896 72.179C83.2197 71.9227 82.9336 71.5625 82.7671 71.1437C82.6006 70.7248 82.5612 70.266 82.6538 69.8247C82.7464 69.3835 82.9668 68.9795 83.2875 68.6635C83.6083 68.3475 84.0149 68.1336 84.4565 68.0485C84.898 67.9635 85.3548 68.0111 85.7694 68.1855C86.184 68.3598 86.5381 68.6531 86.7871 69.0286C87.0361 69.404 87.169 69.8448 87.169 70.2957C87.1583 70.9065 86.9089 71.4886 86.4744 71.9167C86.04 72.3447 85.4553 72.5845 84.8462 72.5844Z" fill="white"/>
<path d="M92.6299 50.2697C92.7164 50.2697 92.7994 50.2353 92.8605 50.174C92.9217 50.1126 92.956 50.0295 92.956 49.9428V48.8802C92.9472 48.7965 92.91 48.7184 92.8507 48.6589C92.7914 48.5994 92.7134 48.5621 92.6299 48.5532C92.5393 48.5527 92.4518 48.5857 92.3841 48.6461C92.3164 48.7065 92.2733 48.7899 92.2632 48.8802V49.9428C92.2628 49.9894 92.2724 50.0355 92.2913 50.0781C92.3102 50.1207 92.3379 50.1588 92.3726 50.1897C92.4074 50.2207 92.4483 50.2438 92.4926 50.2576C92.537 50.2714 92.5838 50.2756 92.6299 50.2697Z" fill="white"/>
<path d="M93.8931 50.2697C93.9796 50.2697 94.0626 50.2353 94.1237 50.174C94.1848 50.1126 94.2192 50.0295 94.2192 49.9428V48.8802C94.2104 48.7965 94.1732 48.7184 94.1139 48.6589C94.0546 48.5994 93.9766 48.5621 93.8931 48.5532C93.8025 48.5527 93.715 48.5857 93.6473 48.6461C93.5795 48.7065 93.5364 48.7899 93.5264 48.8802V49.9428C93.526 49.9894 93.5356 50.0355 93.5545 50.0781C93.5734 50.1207 93.6011 50.1588 93.6358 50.1897C93.6706 50.2207 93.7114 50.2438 93.7558 50.2576C93.8002 50.2714 93.847 50.2756 93.8931 50.2697Z" fill="white"/>
<path d="M95.1569 50.2697C95.2013 50.2767 95.2466 50.2731 95.2894 50.2591C95.3321 50.2452 95.371 50.2213 95.4028 50.1894C95.4346 50.1576 95.4584 50.1186 95.4723 50.0757C95.4862 50.0329 95.4899 49.9873 95.4829 49.9428V48.8802C95.4829 48.7935 95.4485 48.7103 95.3874 48.649C95.3262 48.5876 95.2434 48.5532 95.1569 48.5532C95.0663 48.5527 94.9787 48.5857 94.9109 48.6461C94.8432 48.7065 94.8001 48.7899 94.79 48.8802V49.9428C94.7897 49.9894 94.7993 50.0355 94.8182 50.0781C94.837 50.1207 94.8648 50.1588 94.8995 50.1897C94.9342 50.2207 94.9752 50.2438 95.0196 50.2576C95.064 50.2714 95.1108 50.2756 95.1569 50.2697Z" fill="white"/>
<path d="M96.42 50.2697C96.4644 50.2767 96.5097 50.2731 96.5524 50.2591C96.5952 50.2452 96.6341 50.2213 96.6659 50.1894C96.6976 50.1576 96.7215 50.1186 96.7354 50.0757C96.7493 50.0329 96.7529 49.9873 96.746 49.9428V48.8802C96.746 48.7935 96.7116 48.7103 96.6504 48.649C96.5893 48.5876 96.5065 48.5532 96.42 48.5532C96.3294 48.5527 96.2417 48.5857 96.174 48.6461C96.1063 48.7065 96.0633 48.7899 96.0532 48.8802V49.9428C96.0529 49.9894 96.0623 50.0355 96.0812 50.0781C96.1001 50.1207 96.1278 50.1588 96.1626 50.1897C96.1973 50.2207 96.2383 50.2438 96.2827 50.2576C96.3271 50.2714 96.3739 50.2756 96.42 50.2697Z" fill="white"/>
<path d="M97.5206 50.2697C97.565 50.2767 97.6104 50.2731 97.6532 50.2591C97.6959 50.2452 97.7347 50.2213 97.7665 50.1894C97.7982 50.1576 97.8221 50.1186 97.836 50.0757C97.8499 50.0329 97.8535 49.9873 97.8465 49.9428V48.8802C97.8465 48.7935 97.8123 48.7103 97.7512 48.649C97.69 48.5876 97.607 48.5532 97.5206 48.5532C97.43 48.5527 97.3423 48.5857 97.2746 48.6461C97.2069 48.7065 97.1639 48.7899 97.1538 48.8802V49.9428C97.1535 49.9894 97.1631 50.0355 97.1819 50.0781C97.2008 50.1207 97.2285 50.1588 97.2633 50.1897C97.298 50.2207 97.3389 50.2438 97.3833 50.2576C97.4277 50.2714 97.4745 50.2756 97.5206 50.2697Z" fill="white"/>
<path d="M98.9467 50.2697C98.9928 50.2756 99.0396 50.2714 99.084 50.2576C99.1284 50.2438 99.1693 50.2207 99.204 50.1897C99.2388 50.1588 99.2665 50.1207 99.2854 50.0781C99.3042 50.0355 99.3138 49.9894 99.3135 49.9428V48.8802C99.3034 48.7899 99.2603 48.7065 99.1926 48.6461C99.1249 48.5857 99.0373 48.5527 98.9467 48.5532C98.8603 48.5532 98.7773 48.5876 98.7161 48.649C98.655 48.7103 98.6206 48.7935 98.6206 48.8802V49.9428C98.6137 49.9873 98.6173 50.0329 98.6312 50.0757C98.6451 50.1186 98.6689 50.1576 98.7007 50.1894C98.7325 50.2213 98.7714 50.2452 98.8141 50.2591C98.8569 50.2731 98.9023 50.2767 98.9467 50.2697Z" fill="white"/>
<path d="M100.21 50.2697C100.256 50.2756 100.303 50.2714 100.347 50.2576C100.392 50.2438 100.432 50.2207 100.467 50.1897C100.502 50.1588 100.53 50.1207 100.549 50.0781C100.567 50.0355 100.577 49.9894 100.577 49.9428V48.8802C100.567 48.7899 100.523 48.7065 100.456 48.6461C100.388 48.5857 100.3 48.5527 100.21 48.5532C100.123 48.5532 100.04 48.5876 99.9793 48.649C99.9182 48.7103 99.8838 48.7935 99.8838 48.8802V49.9428C99.8768 49.9873 99.8806 50.0329 99.8945 50.0757C99.9084 50.1186 99.9322 50.1576 99.964 50.1894C99.9958 50.2213 100.035 50.2452 100.077 50.2591C100.12 50.2731 100.165 50.2767 100.21 50.2697Z" fill="white"/>
<path d="M101.596 50.2697C101.642 50.2756 101.688 50.2714 101.733 50.2576C101.777 50.2438 101.818 50.2207 101.853 50.1897C101.888 50.1588 101.915 50.1207 101.934 50.0781C101.953 50.0355 101.963 49.9894 101.962 49.9428V48.8802C101.952 48.7899 101.909 48.7065 101.842 48.6461C101.774 48.5857 101.686 48.5527 101.596 48.5532C101.509 48.5532 101.426 48.5876 101.365 48.649C101.304 48.7103 101.27 48.7935 101.27 48.8802V49.9428C101.263 49.9873 101.266 50.0329 101.28 50.0757C101.294 50.1186 101.318 50.1576 101.35 50.1894C101.381 50.2213 101.42 50.2452 101.463 50.2591C101.506 50.2731 101.551 50.2767 101.596 50.2697Z" fill="white"/>
<path d="M102.737 50.2697C102.783 50.2756 102.83 50.2714 102.874 50.2576C102.918 50.2438 102.959 50.2207 102.994 50.1897C103.029 50.1588 103.056 50.1207 103.075 50.0781C103.094 50.0355 103.104 49.9894 103.103 49.9428V48.8802C103.093 48.7899 103.05 48.7065 102.983 48.6461C102.915 48.5857 102.827 48.5527 102.737 48.5532C102.653 48.5621 102.575 48.5994 102.516 48.6589C102.457 48.7184 102.419 48.7965 102.411 48.8802V49.9428C102.411 50.0295 102.445 50.1126 102.506 50.174C102.567 50.2353 102.65 50.2697 102.737 50.2697Z" fill="white"/>
<path d="M95.8089 51.3323C95.8089 51.6184 95.8089 51.8227 95.8089 51.9454C95.7857 51.7417 95.7857 51.536 95.8089 51.3323Z" fill="white"/>
<path d="M104.041 49.4114H103.226V49.9427C103.226 50.0728 103.174 50.1975 103.083 50.2895C102.991 50.3815 102.866 50.4331 102.737 50.4331C102.61 50.4237 102.491 50.369 102.401 50.279C102.312 50.1889 102.257 50.0696 102.248 49.9427V49.4114H101.962V49.9427C101.962 50.0728 101.911 50.1975 101.819 50.2895C101.727 50.3815 101.603 50.4331 101.473 50.4331C101.347 50.4237 101.228 50.369 101.138 50.279C101.048 50.1889 100.994 50.0696 100.984 49.9427V49.4114H100.699V49.9427C100.699 50.0728 100.648 50.1975 100.556 50.2895C100.464 50.3815 100.34 50.4331 100.21 50.4331C100.084 50.4237 99.9646 50.369 99.8748 50.279C99.7851 50.1889 99.7305 50.0696 99.7211 49.9427V49.4114H99.4358V49.9427C99.4358 50.0728 99.3843 50.1975 99.2926 50.2895C99.2009 50.3815 99.0765 50.4331 98.9468 50.4331C98.8171 50.4331 98.6927 50.3815 98.601 50.2895C98.5093 50.1975 98.4578 50.0728 98.4578 49.9427V49.4114H98.1725V49.9427C98.1725 50.0728 98.121 50.1975 98.0293 50.2895C97.9375 50.3815 97.8132 50.4331 97.6835 50.4331C97.5538 50.4331 97.4294 50.3815 97.3377 50.2895C97.2459 50.1975 97.1945 50.0728 97.1945 49.9427V49.4114H96.9092V49.9427C96.9092 50.0728 96.8576 50.1975 96.7659 50.2895C96.6742 50.3815 96.5499 50.4331 96.4202 50.4331C96.2905 50.4331 96.166 50.3815 96.0743 50.2895C95.9826 50.1975 95.9311 50.0728 95.9311 49.9427V49.4114H95.6459V49.9427C95.6365 50.0696 95.5819 50.1889 95.4922 50.279C95.4024 50.369 95.2835 50.4237 95.1569 50.4331C95.0272 50.4331 94.9027 50.3815 94.811 50.2895C94.7193 50.1975 94.6678 50.0728 94.6678 49.9427V49.4114H94.3826V49.9427C94.3732 50.0696 94.3186 50.1889 94.2289 50.279C94.1391 50.369 94.02 50.4237 93.8935 50.4331C93.7638 50.4331 93.6394 50.3815 93.5477 50.2895C93.456 50.1975 93.4044 50.0728 93.4044 49.9427V49.4114H93.1193V49.9427C93.1099 50.0696 93.0553 50.1889 92.9656 50.279C92.8758 50.369 92.7567 50.4237 92.6301 50.4331C92.5004 50.4331 92.3761 50.3815 92.2844 50.2895C92.1927 50.1975 92.1411 50.0728 92.1411 49.9427V49.4114H91.6113V58.8114H104.041V49.4114ZM93.8528 57.5853H92.6709V56.8088H93.8528V57.5853ZM93.8528 56.4001H92.6709V55.5827H93.8528V56.4001ZM93.8528 55.174H92.6709V54.3975H93.8528V55.174ZM93.8528 53.9888H92.6709V53.1714H93.8528V53.9888ZM94.7493 52.1905V51.0462H95.1161V52.2314H94.6271L94.7493 52.1905ZM95.3606 57.5853H94.2195V56.8088H95.3606V57.5853ZM95.3606 56.4001H94.2195V55.5827H95.3606V56.4001ZM95.3606 55.174H94.2195V54.3975H95.3606V55.174ZM95.3606 53.9888H94.2195V53.1714H95.3606V53.9888ZM95.3606 52.4357L95.5643 51.0462H96.0941L96.2979 52.4357H95.9311V52.1905V52.4357H95.3606ZM96.9092 57.5853H95.7681V56.8088H96.9092V57.5853ZM96.9092 56.4001H95.7681V55.5827H96.9092V56.4001ZM96.9092 55.174H95.7681V54.3975H96.9092V55.174ZM96.9092 53.9888H95.7681V53.1714H96.9092V53.9888ZM97.1537 52.4357H96.8276V51.7818V52.4357H96.5017V51.0462H96.8276L97.0315 51.6592V51.0462H97.3168L97.1537 52.4357ZM97.1537 51.0462H97.5205V52.1905V51.0462H97.8872V52.1905H97.5205V51.0462H97.1537ZM98.2948 57.5853H97.1129V56.8088H98.2948V57.5853ZM98.2948 56.4001H97.1129V55.5827H98.2948V56.4001ZM98.2948 55.174H97.1129V54.3975H98.2948V55.174ZM98.2948 53.9888H97.1129V53.1714H98.2948V53.9888ZM98.5393 52.1905V52.4357H98.1317L98.3356 51.0462H98.8652L99.0691 52.4357H98.7023L98.5393 52.1905ZM99.8026 57.5853H98.6207V56.8088H99.8026V57.5853ZM99.8026 56.4001H98.6207V55.5827H99.8026V56.4001ZM99.8026 55.174H98.6207V54.3975H99.8026V55.174ZM99.8026 53.9888H98.6207V53.1714H99.8026V53.9888ZM99.8026 51.7818V52.1496H99.4358V51.5366V52.1905H99.0691V50.8009H99.6395C99.6713 50.8796 99.6713 50.9676 99.6395 51.0462C99.6539 51.1136 99.6539 51.1831 99.6395 51.2505L99.8026 51.7818ZM100.251 51.0462C100.251 51.2914 100.251 51.4957 100.251 51.5775C100.26 51.4005 100.26 51.2232 100.251 51.0462H100.577L100.332 51.9453V52.4357H99.9656V51.9453L99.7211 51.0462H100.251ZM101.351 57.5853H100.169V56.8088H101.596L101.351 57.5853ZM101.351 56.4001H100.169V55.5827H101.596L101.351 56.4001ZM101.351 55.174H100.169V54.3975H101.596L101.351 55.174ZM101.351 53.9888H100.169V53.1714H101.596L101.351 53.9888ZM102.859 57.5853H101.596V56.8088H102.778L102.859 57.5853ZM102.859 56.4001H101.596V55.5827H102.778L102.859 56.4001ZM102.859 55.174H101.596V54.3975H102.778L102.859 55.174ZM102.859 53.9888H101.596V53.1714H102.778L102.859 53.9888Z" fill="white"/>
<path d="M11.2884 47.4497C11.1555 48.3516 10.7036 49.1756 10.0154 49.7713C9.32715 50.3669 8.44838 50.6947 7.53927 50.6947C6.63015 50.6947 5.75126 50.3669 5.06301 49.7713C4.37476 49.1756 3.92296 48.3516 3.78999 47.4497C2.79185 47.4496 1.83392 47.8445 1.12433 48.5485C0.41473 49.2524 0.0107884 50.2087 5.57112e-05 51.2097C-0.00285893 51.7371 0.108623 52.2588 0.326766 52.7387C0.544909 53.2186 0.864484 53.6452 1.26337 53.9889L7.53927 60.6915L13.8558 53.9889C14.4176 53.4755 14.8105 52.8031 14.9826 52.0607C15.1546 51.3184 15.0977 50.541 14.8193 49.8319C14.5409 49.1227 14.0541 48.5152 13.4235 48.0897C12.793 47.6643 12.0483 47.4411 11.2884 47.4497Z" fill="white"/>
<path d="M11.4108 82.3523L14.6303 81.1672L12.3889 75.0367L11.9406 75.1593L11.4108 73.7698C12.3276 73.1639 13.0123 72.264 13.3528 71.2172C13.6933 70.1704 13.6695 69.0387 13.2854 68.0072C12.8272 66.7951 11.913 65.812 10.7393 65.2693C9.56551 64.7266 8.2262 64.6677 7.00963 65.1054C5.91916 65.5415 5.02152 66.3564 4.48065 67.4014C3.93977 68.4463 3.79173 69.6515 4.06365 70.7969C4.33556 71.9422 5.00921 72.9512 5.9616 73.6396C6.91399 74.328 8.08154 74.6498 9.25096 74.5463L9.78076 75.9359H9.25096L11.4924 82.0663L11.4108 82.3523ZM5.42023 71.0724C5.17744 70.4356 5.12916 69.7408 5.28156 69.0765C5.43397 68.4121 5.78016 67.8083 6.276 67.342C6.77183 66.8757 7.39489 66.5679 8.06575 66.458C8.73661 66.3481 9.4249 66.441 10.0429 66.7249C10.661 67.0087 11.1808 67.4706 11.5361 68.0518C11.8914 68.633 12.066 69.3071 12.0379 69.9882C12.0098 70.6693 11.7801 71.3266 11.3781 71.8763C10.9761 72.4261 10.4201 72.8434 9.78076 73.075C8.93724 73.3806 8.00777 73.342 7.19233 72.9675C6.37688 72.593 5.74058 71.9125 5.42023 71.0724Z" fill="white"/>
<path d="M71.1538 4.00537H68.5864L68.3419 5.35408C68.0257 4.82421 67.5759 4.38723 67.0378 4.08713C66.5273 3.80337 65.9503 3.66221 65.3669 3.67841C64.5528 3.67299 63.7509 3.87674 63.0375 4.27022C62.3242 4.6637 61.7231 5.23381 61.2917 5.92625C60.1982 7.44719 59.6262 9.28282 59.6616 11.1575C59.6055 12.4607 60.0258 13.7397 60.8435 14.7541C61.2336 15.1878 61.7119 15.5326 62.2462 15.7653C62.7805 15.9979 63.3583 16.113 63.9407 16.1028C64.4584 16.1231 64.974 16.0252 65.4485 15.8167C66.0038 15.5234 66.5234 15.1669 66.9971 14.7541C67.1125 15.1905 67.3838 15.5692 67.7596 15.8179C68.1354 16.0666 68.5892 16.168 69.0347 16.1028C70.7176 16.0005 72.3017 15.2718 73.4767 14.0593C74.712 12.6943 75.4714 10.9636 75.6404 9.12804C75.8095 7.29249 75.379 5.4516 74.4139 3.88277C73.6326 2.68757 72.5687 1.70477 71.3169 1.02191C69.2642 0.0946593 66.9858 -0.20982 64.7626 0.146038C62.5395 0.501895 60.4687 1.50255 58.8059 3.02454C56.9482 5.0126 55.9518 7.65778 56.0347 10.381C55.9793 11.7127 56.2171 13.0404 56.7313 14.2695C57.2455 15.4986 58.0233 16.5989 59.0096 17.4923C61.031 19.3092 63.6726 20.2753 66.3857 20.1897C68.1216 20.1942 69.8406 19.8467 71.4391 19.168C73.0029 18.5297 74.3978 17.5364 75.5143 16.2662H73.0692C72.1228 16.9613 71.0791 17.5122 69.972 17.9011C68.8679 18.266 67.7112 18.4455 66.5488 18.4323C64.315 18.5203 62.1356 17.7282 60.4767 16.2254C59.6801 15.4668 59.0565 14.5445 58.6485 13.5216C58.2406 12.4988 58.0578 11.3996 58.113 10.2993C58.0557 9.14282 58.244 7.98726 58.6656 6.90926C59.0871 5.83125 59.7322 4.85541 60.5582 4.04628C61.3774 3.26639 62.3438 2.65854 63.4006 2.25849C64.4573 1.85844 65.5831 1.67422 66.7118 1.71669C68.6232 1.6239 70.4951 2.28387 71.9281 3.55581C72.5879 4.16784 73.1079 4.91569 73.4526 5.74808C73.7973 6.58047 73.9583 7.47776 73.9249 8.37845C73.9413 9.45409 73.704 10.5184 73.2322 11.4845C72.8588 12.2631 72.3156 12.9475 71.6428 13.4871C71.1589 13.8594 70.5794 14.0862 69.972 14.1411C69.6459 14.1411 69.4829 14.1411 69.4829 13.6915C69.4681 13.5557 69.4681 13.4186 69.4829 13.2828L71.1538 4.00537ZM67.0786 11.3619C66.9093 12.2702 66.5013 13.1168 65.8967 13.8141C65.7071 14.0116 65.479 14.1678 65.2266 14.2733C64.9743 14.3787 64.7031 14.4311 64.4297 14.4271C64.1504 14.4351 63.8741 14.3671 63.6301 14.2304C63.3862 14.0937 63.1837 13.8934 63.0441 13.6506C62.6709 13.1126 62.4847 12.4662 62.5143 11.8115C62.5022 10.324 62.7934 8.84978 63.3701 7.47931C63.9406 6.17148 64.7557 5.47668 65.8153 5.47668C66.0747 5.4735 66.3313 5.53093 66.5647 5.64443C66.7981 5.75793 67.0019 5.92439 67.16 6.13061C67.5014 6.63582 67.6729 7.23728 67.6492 7.84712C67.6174 9.04234 67.4113 10.2265 67.0378 11.3619H67.0786Z" fill="white"/>
<path d="M21.9653 41.2783H27.5484V39.194L24.166 35.5157L20.1722 39.807L12.7145 33.7583L12.5923 33.84V41.2783H21.9653Z" fill="white"/>
<path d="M29.5456 29.0991H10.6772V42.6678H29.5456V29.0991ZM28.2415 41.6461H11.9406V30.2026H28.2415V41.6461Z" fill="white"/>
<path d="M20.3764 35.8836C20.6581 35.889 20.938 35.838 21.1998 35.7337C21.4616 35.6293 21.7001 35.4736 21.9012 35.2757C22.1023 35.0778 22.2621 34.8417 22.3711 34.5812C22.4801 34.3207 22.5363 34.0409 22.5362 33.7583C22.5785 33.4517 22.5547 33.1396 22.4666 32.843C22.3785 32.5463 22.228 32.2721 22.0252 32.0387C21.8225 31.8053 21.5723 31.6182 21.2913 31.49C21.0104 31.3618 20.7054 31.2954 20.3968 31.2954C20.0881 31.2954 19.783 31.3618 19.5021 31.49C19.2212 31.6182 18.9709 31.8053 18.7682 32.0387C18.5655 32.2721 18.415 32.5463 18.3268 32.843C18.2387 33.1396 18.2149 33.4517 18.2572 33.7583C18.2572 34.0374 18.312 34.3138 18.4185 34.5717C18.525 34.8295 18.6811 35.0638 18.8779 35.2611C19.0747 35.4585 19.3083 35.615 19.5654 35.7218C19.8225 35.8286 20.0981 35.8836 20.3764 35.8836Z" fill="white"/>
<path d="M13.2849 99.4358C13.2849 100.119 13.5555 100.774 14.037 101.256C14.5185 101.739 15.1714 102.011 15.8524 102.011H24.1659C24.8468 102.011 25.4998 101.739 25.9813 101.256C26.4627 100.774 26.7333 100.119 26.7333 99.4358C26.724 98.765 26.4619 98.1225 25.9998 97.6375C26.0602 97.396 26.0602 97.1433 25.9998 96.9019C26.0023 96.4578 25.8546 96.026 25.5807 95.6771C25.3068 95.3282 24.9229 95.0827 24.4918 94.981C24.4229 94.4318 24.1579 93.9263 23.7458 93.5581C23.3337 93.1899 22.8024 92.9839 22.2505 92.9784C21.9304 92.9784 21.6136 93.0435 21.3194 93.17C21.0252 93.2965 20.7596 93.4815 20.5389 93.714C20.2249 93.2675 19.8104 92.9016 19.3289 92.6459C18.8474 92.3903 18.3125 92.2521 17.7677 92.2427C16.8707 92.2427 16.0104 92.6001 15.376 93.2362C14.7417 93.8724 14.3853 94.7352 14.3853 95.6349C14.3864 96.117 14.4979 96.5924 14.7113 97.0245C14.2024 97.1888 13.7586 97.5107 13.4438 97.944C13.1289 98.3773 12.9591 98.8996 12.959 99.4358" fill="white"/>
<path d="M85.9877 84.3958H73.762C73.5674 84.3958 73.3808 84.4733 73.2432 84.6112C73.1057 84.7492 73.0283 84.9363 73.0283 85.1314V85.5401L79.0189 90.8123C79.2711 90.8909 79.5411 90.8909 79.7932 90.8123C80.0445 90.8964 80.3162 90.8964 80.5675 90.8123L86.5989 85.5401V85.1314C86.5989 84.9363 86.5216 84.7492 86.384 84.6112C86.2465 84.4733 86.06 84.3958 85.8654 84.3958" fill="white"/>
<path d="M79.9152 91.5069C79.6421 91.5219 79.3713 91.4504 79.1409 91.3026L73.0688 86.0713V93.1826C73.0688 93.2792 73.0878 93.3749 73.1247 93.4641C73.1616 93.5534 73.2156 93.6345 73.2838 93.7028C73.3519 93.7711 73.4327 93.8253 73.5217 93.8622C73.6107 93.8992 73.706 93.9182 73.8024 93.9182H86.0281C86.1244 93.9182 86.2198 93.8992 86.3088 93.8622C86.3978 93.8253 86.4787 93.7711 86.5468 93.7028C86.6149 93.6345 86.669 93.5534 86.7059 93.4641C86.7427 93.3749 86.7616 93.2792 86.7616 93.1826V86.0713L80.6895 91.5069C80.4616 91.6603 80.1889 91.7323 79.9152 91.7113V91.5069ZM76.2067 91.1391L75.5955 91.9974L74.862 92.8148C74.6236 93.0801 74.3647 93.326 74.0877 93.5504C74.2398 93.2239 74.417 92.9096 74.6175 92.6104L75.2287 91.7522C75.4514 91.4608 75.6967 91.1875 75.9622 90.9348C76.2001 90.669 76.4591 90.423 76.7365 90.1991C76.576 90.4556 76.399 90.7013 76.2067 90.9348V91.1391ZM83.909 90.9348C84.1615 91.1881 84.3931 91.4615 84.6017 91.7522C84.8414 92.0204 85.0595 92.3074 85.2538 92.6104L85.7836 93.5504C85.494 93.3259 85.2216 93.0801 84.9686 92.8148C84.7241 92.5287 84.4795 92.2834 84.2757 91.9974L83.6645 91.1391C83.4472 90.8507 83.269 90.5345 83.1347 90.1991C83.405 90.3576 83.6638 90.5351 83.909 90.7304V90.9348Z" fill="white"/>
<path d="M40.467 67.8844C39.6265 65.8698 38.211 64.1494 36.3982 62.9393C34.5855 61.7293 32.4565 61.0837 30.2789 61.0837C28.1013 61.0837 25.9723 61.7293 24.1596 62.9393C22.3469 64.1494 20.9313 65.8698 20.0908 67.8844C20.0908 68.4158 20.0908 68.947 20.0908 69.0696L21.3541 69.4784C21.6394 69.4784 22.0062 69.274 22.1692 68.8653C22.8427 67.3366 23.9446 66.0371 25.3409 65.1249C26.7373 64.2126 28.3679 63.727 30.0344 63.727C31.7009 63.727 33.3314 64.2126 34.7277 65.1249C36.1241 66.0371 37.2261 67.3366 37.8996 68.8653C37.8996 69.274 38.4294 69.5601 38.7147 69.4784L39.978 69.0696C40.2633 69.0696 40.3448 68.4158 39.978 67.8844" fill="white"/>
<path d="M35.6585 71.0722L36.4329 70.827C36.5011 70.8083 36.5632 70.772 36.6132 70.7219C36.6632 70.6717 36.6993 70.6093 36.718 70.5409C36.7794 70.4135 36.8113 70.2738 36.8113 70.1323C36.8113 69.9907 36.7794 69.851 36.718 69.7235C36.1564 68.4481 35.2372 67.3638 34.0724 66.6026C32.9075 65.8415 31.5473 65.4363 30.157 65.4363C28.7667 65.4363 27.4064 65.8415 26.2415 66.6026C25.0767 67.3638 24.1574 68.4481 23.5958 69.7235C23.4954 69.9867 23.4954 70.2777 23.5958 70.5409C23.6269 70.6089 23.6722 70.6696 23.7283 70.7189C23.7845 70.7682 23.8505 70.8051 23.9218 70.827L24.6962 71.0722C24.8566 71.0608 25.0095 70.9996 25.1337 70.8971C25.2578 70.7945 25.347 70.6558 25.3889 70.5001C25.7813 69.5939 26.4312 68.8238 27.2575 68.2859C28.0837 67.748 29.0497 67.4662 30.0347 67.4757C31.014 67.469 31.9734 67.7524 32.7927 68.2905C33.6119 68.8285 34.2545 69.5972 34.6397 70.5001C34.6941 70.6562 34.7922 70.7932 34.9223 70.8947C35.0524 70.9962 35.209 71.0579 35.3733 71.0722" fill="white"/>
<path d="M33.0503 72.707H33.2541H33.6615C33.7431 72.6833 33.8183 72.6417 33.8818 72.5851C33.9452 72.5286 33.9954 72.4586 34.0284 72.3801C34.0777 72.2638 34.1031 72.1387 34.1031 72.0123C34.1031 71.8859 34.0777 71.7608 34.0284 71.6444C33.707 70.9274 33.1862 70.3185 32.5284 69.8908C31.8707 69.4631 31.1038 69.2348 30.3199 69.2332C29.536 69.2348 28.7692 69.4631 28.1114 69.8908C27.4537 70.3185 26.9329 70.9274 26.6114 71.6444C26.5508 71.7575 26.519 71.8839 26.519 72.0123C26.519 72.1406 26.5508 72.2671 26.6114 72.3801C26.6445 72.4586 26.6945 72.5286 26.758 72.5851C26.8214 72.6417 26.8967 72.6833 26.9782 72.707H27.3858C27.5467 72.7011 27.7022 72.6474 27.8327 72.5529C27.9633 72.4583 28.063 72.3271 28.1193 72.1758C28.2981 71.7845 28.5851 71.4529 28.9463 71.2204C29.3075 70.9879 29.7277 70.8644 30.1569 70.8644C30.5861 70.8644 31.0063 70.9879 31.3675 71.2204C31.7287 71.4529 32.0157 71.7845 32.1945 72.1758C32.2479 72.321 32.3415 72.4481 32.4641 72.5421C32.5868 72.6362 32.7335 72.6934 32.8873 72.707" fill="white"/>
<path d="M30.3197 72.9114C29.9231 72.9115 29.5354 73.03 29.2062 73.2519C28.8769 73.4738 28.6211 73.7891 28.4713 74.1574C28.3214 74.5257 28.2843 74.9304 28.3647 75.32C28.4451 75.7095 28.6394 76.0662 28.9227 76.3446C29.2061 76.623 29.5657 76.8104 29.9557 76.883C30.3457 76.9556 30.7485 76.91 31.1126 76.7522C31.4767 76.5943 31.7856 76.3313 32 75.9966C32.2145 75.662 32.3247 75.2708 32.3166 74.8731C32.3059 74.3491 32.0908 73.8502 31.7175 73.4834C31.3441 73.1167 30.8423 72.9113 30.3197 72.9114Z" fill="white"/>
</g>
<defs>
<clipPath id="clip0_63_522">
<rect width="104" height="141" fill="white"/>
</clipPath>
</defs>
</svg>
