<svg width="147" height="160" viewBox="0 0 147 160" fill="none" xmlns="http://www.w3.org/2000/svg">
<g clip-path="url(#clip0_61_366)">
<path d="M39.1454 45.5075C39.3648 45.3019 39.5397 45.0533 39.6593 44.7774C39.7788 44.5015 39.8405 44.2039 39.8405 43.9032C39.8405 43.6024 39.7788 43.3049 39.6593 43.0289C39.5397 42.753 39.3648 42.5045 39.1454 42.299C38.7181 41.8776 38.1421 41.6414 37.5422 41.6414C36.9423 41.6414 36.3665 41.8776 35.9392 42.299C30.9779 47.1718 27.037 52.9853 24.3468 59.3998C21.6566 65.8142 20.271 72.7009 20.271 79.6574C20.271 86.6139 21.6566 93.5005 24.3468 99.915C27.037 106.329 30.9779 112.143 35.9392 117.016C36.3792 117.431 36.9591 117.667 37.5642 117.675C38.1577 117.674 38.7264 117.436 39.1454 117.016C39.3636 116.814 39.5377 116.569 39.6569 116.297C39.776 116.025 39.8374 115.731 39.8374 115.433C39.8374 115.136 39.776 114.842 39.6569 114.57C39.5377 114.298 39.3636 114.053 39.1454 113.851C34.5997 109.398 30.9881 104.082 28.5225 98.2142C26.0569 92.3463 24.7868 86.0449 24.7868 79.6794C24.7868 73.3138 26.0569 67.0123 28.5225 61.1444C30.9881 55.2764 34.5997 49.9603 39.1454 45.5075V45.5075Z" fill="white"/>
<path d="M108.232 113.675C108.013 113.877 107.839 114.122 107.72 114.394C107.601 114.666 107.54 114.961 107.54 115.258C107.54 115.555 107.601 115.849 107.72 116.121C107.839 116.394 108.013 116.638 108.232 116.84C108.651 117.261 109.219 117.498 109.813 117.499C110.418 117.491 110.998 117.256 111.438 116.84C116.388 111.961 120.32 106.146 123.003 99.7319C125.687 93.3183 127.069 86.4347 127.069 79.4816C127.069 72.5285 125.687 65.6448 123.003 59.2312C120.32 52.8176 116.388 47.0021 111.438 42.1232C111.011 41.7018 110.435 41.4656 109.835 41.4656C109.235 41.4656 108.659 41.7018 108.232 42.1232C108.012 42.3288 107.837 42.5772 107.718 42.8531C107.598 43.1291 107.537 43.4266 107.537 43.7274C107.537 44.0281 107.598 44.3258 107.718 44.6018C107.837 44.8777 108.012 45.1261 108.232 45.3317C112.777 49.7845 116.389 55.1007 118.855 60.9686C121.32 66.8365 122.59 73.138 122.59 79.5036C122.59 85.8691 121.32 92.1707 118.855 98.0386C116.389 103.907 112.777 109.223 108.232 113.675V113.675Z" fill="white"/>
<path d="M1.76972 126.685C4.39143 127.477 6.68697 129.095 8.31375 131.3C8.51527 131.626 8.66356 131.982 8.75297 132.355C8.94371 132.91 9.32966 133.376 9.83877 133.667C10.3479 133.958 10.9454 134.054 11.52 133.937L13.3645 133.585C14.6842 133.353 16.0214 133.236 17.3612 133.234C24.608 133.234 30.098 136.31 30.098 139.035C30.2343 139.513 30.5224 139.933 30.9187 140.232C31.3149 140.531 31.7977 140.693 32.294 140.693C32.7903 140.693 33.2732 140.531 33.6694 140.232C34.0657 139.933 34.3537 139.513 34.49 139.035C34.49 136.31 39.8922 133.234 47.2269 133.234C49.2106 133.216 51.1884 133.452 53.1121 133.937C53.3948 134.016 53.6904 134.038 53.9816 134.001C54.2728 133.964 54.5538 133.869 54.8076 133.721C55.0615 133.574 55.2832 133.377 55.4597 133.142C55.6362 132.907 55.7638 132.64 55.8351 132.355C56.4052 131.133 57.2167 130.04 58.2207 129.141C59.2246 128.242 60.4002 127.556 61.6764 127.125L61.3691 126.773C60.5034 125.69 59.7664 124.51 59.1731 123.257C56.369 124.493 53.9766 126.506 52.2776 129.058C50.6062 128.795 48.9186 128.648 47.2269 128.619C44.7551 128.608 42.2915 128.903 39.8922 129.498C31.5573 124.107 24.7032 116.714 19.9546 107.993C15.2061 99.2724 12.7141 89.501 12.7057 79.5696C12.5877 69.0151 15.2142 58.6112 20.3274 49.3793C25.4406 40.1473 32.8648 32.4046 41.8712 26.911C50.8776 21.4173 61.1567 18.3616 71.6995 18.0438C82.2424 17.726 92.6867 20.1569 102.007 25.0981C111.328 30.0393 119.204 37.321 124.863 46.2282C130.523 55.1354 133.77 65.3621 134.287 75.9045C134.804 86.447 132.573 96.9427 127.812 106.362C123.052 115.781 115.926 123.799 107.134 129.63C104.737 129.014 102.273 128.704 99.799 128.707C98.1053 128.693 96.414 128.84 94.7481 129.146C93.0598 126.595 90.6631 124.594 87.8528 123.389C87.5014 124.18 87.15 124.883 86.7986 125.542C86.4539 126.165 86.0727 126.767 85.6568 127.344C86.888 127.752 88.0182 128.418 88.9724 129.297C89.9265 130.176 90.6827 131.248 91.1906 132.443C91.3549 133.006 91.7293 133.484 92.2362 133.778C92.7431 134.073 93.3437 134.161 93.9138 134.025C95.8432 133.576 97.8183 133.355 99.799 133.366C107.002 133.366 112.492 136.398 112.492 139.123C112.652 139.578 112.949 139.972 113.342 140.251C113.736 140.53 114.206 140.68 114.688 140.68C115.17 140.68 115.64 140.53 116.033 140.251C116.427 139.972 116.724 139.578 116.884 139.123C116.884 136.398 122.286 133.366 129.621 133.366C130.961 133.346 132.301 133.464 133.617 133.717L135.462 134.025C135.747 134.118 136.049 134.15 136.348 134.119C136.646 134.089 136.935 133.996 137.195 133.847C137.456 133.698 137.683 133.496 137.861 133.254C138.039 133.012 138.164 132.736 138.229 132.443C138.319 132.084 138.467 131.742 138.668 131.432C140.277 129.257 142.516 127.631 145.08 126.773C145.602 126.623 146.052 126.287 146.345 125.83C146.639 125.373 146.756 124.824 146.676 124.286C146.595 123.749 146.322 123.259 145.907 122.908C145.493 122.557 144.965 122.368 144.422 122.378C144.145 122.337 143.864 122.337 143.587 122.378C139.987 123.544 136.89 125.899 134.803 129.058H134.452C132.895 128.844 131.324 128.741 129.752 128.751C124.275 128.443 118.892 130.27 114.732 133.849C113.903 133.018 112.974 132.295 111.965 131.695C123.141 123.554 131.456 112.082 135.719 98.9224C139.981 85.7629 139.973 71.591 135.695 58.4364C131.417 45.2818 123.089 33.8194 111.904 25.6908C100.718 17.5622 87.2489 13.1843 73.4251 13.1843C59.6013 13.1843 46.132 17.5622 34.9464 25.6908C23.7608 33.8194 15.4327 45.2818 11.1548 58.4364C6.87698 71.591 6.86882 85.7629 11.1315 98.9224C15.3942 112.082 23.7092 123.554 34.8854 131.695C33.9021 132.331 32.9762 133.052 32.1184 133.849C27.9495 130.286 22.5725 128.461 17.0977 128.751C15.5249 128.755 13.9543 128.873 12.3983 129.102H12.047C9.95023 125.953 6.85662 123.6 3.26298 122.422C2.98101 122.31 2.67937 122.258 2.37636 122.266C2.07334 122.275 1.7753 122.345 1.50018 122.473C1.22506 122.6 0.978526 122.782 0.775734 123.007C0.572943 123.233 0.418004 123.497 0.32029 123.784C0.137849 124.362 0.187134 124.987 0.457674 125.529C0.728215 126.07 1.19883 126.485 1.76972 126.685V126.685Z" fill="white"/>
<path d="M142.533 26.6963L137.219 27.9271V33.1571L134.101 28.762L128.83 30.0367L132.168 26.0371L129.05 21.642L134.232 23.5758L137.57 19.6203V24.8065L142.533 26.6963ZM139.064 15.357C138.563 15.1493 138.025 15.0447 137.482 15.0493C136.808 15.0217 136.136 15.1501 135.519 15.4245C134.902 15.6989 134.357 16.112 133.925 16.6316L132.651 18.082L130.587 17.2909C130.071 17.078 129.52 16.959 128.962 16.9393C128.276 16.9273 127.598 17.076 126.98 17.3736C126.362 17.6713 125.823 18.1096 125.405 18.6534C124.792 19.4293 124.459 20.3893 124.459 21.3783C124.459 22.3673 124.792 23.3273 125.405 24.1032L126.546 25.6855L125.405 27.048C124.766 27.6905 124.342 28.5148 124.19 29.408C124.037 30.3012 124.164 31.2196 124.554 32.0376C124.943 32.8555 125.576 33.533 126.365 33.9773C127.154 34.4217 128.061 34.6112 128.962 34.5197C129.296 34.5838 129.639 34.5838 129.972 34.5197L132.168 33.9484L133.53 35.8822C133.964 36.4784 134.532 36.964 135.188 37.2999C135.844 37.6359 136.57 37.8127 137.307 37.8161C137.739 37.7972 138.167 37.7233 138.58 37.5962C139.532 37.3153 140.37 36.7374 140.97 35.9467C141.57 35.1561 141.903 34.1941 141.918 33.2011V31.7068L143.763 31.2234C144.693 30.9841 145.529 30.4705 146.164 29.7495C146.798 29.0284 147.201 28.1331 147.321 27.1799C147.37 26.2214 147.106 25.273 146.566 24.4793C146.027 23.6857 145.243 23.0906 144.334 22.7848L142.138 21.9937V19.928C142.223 18.9295 141.965 17.9319 141.405 17.1006C140.846 16.2692 140.02 15.654 139.064 15.357V15.357Z" fill="white"/>
<path d="M10.0267 24.7626V19.5762L13.3645 23.5319L18.5472 21.5981L15.4288 25.9932L18.7667 29.9926L13.4963 28.7181L10.378 33.1132V27.883L5.06373 26.6524L10.0267 24.7626ZM0.276469 27.048C0.33705 28.0214 0.719412 28.9471 1.36348 29.6791C2.00754 30.4112 2.87671 30.9079 3.83397 31.0914L5.67853 31.5749V33.2451C5.64698 34.2432 5.95611 35.2222 6.55484 36.0211C7.15357 36.82 8.0062 37.391 8.97253 37.6402C9.38696 37.7634 9.81452 37.8371 10.2462 37.8599C10.9833 37.8565 11.7092 37.6797 12.3653 37.3438C13.0214 37.0078 13.5895 36.5222 14.0234 35.926L15.4288 33.9922L17.5809 34.5635C17.9293 34.628 18.2866 34.628 18.635 34.5635C19.5358 34.655 20.4428 34.4656 21.2319 34.0213C22.0209 33.5769 22.6536 32.8993 23.043 32.0814C23.4325 31.2634 23.5599 30.345 23.4076 29.4518C23.2554 28.5586 22.8309 27.7345 22.1925 27.092L21.0505 25.7295L22.1925 24.1472C22.7519 23.3488 23.052 22.3973 23.052 21.4222C23.052 20.4471 22.7519 19.4957 22.1925 18.6973C21.7743 18.1535 21.2348 17.7152 20.617 17.4176C19.9993 17.1199 19.3205 16.9711 18.635 16.9831C18.0882 16.9802 17.5479 17.1004 17.0539 17.3348L14.9897 18.1259L13.716 16.6754C13.2417 16.1734 12.6696 15.7741 12.035 15.502C11.4005 15.2298 10.7171 15.0907 10.0267 15.0933C9.48333 15.0766 8.94303 15.1817 8.44551 15.401C7.53645 15.7068 6.75247 16.3019 6.21319 17.0955C5.67391 17.8892 5.409 18.8376 5.45899 19.7961V21.8618L3.39475 22.6529C2.46111 22.935 1.64782 23.5201 1.08321 24.3159C0.518604 25.1117 0.234827 26.0729 0.276469 27.048V27.048Z" fill="white"/>
<path d="M59.1295 96.5347L61.5451 89.7662H85.8328L88.2485 96.5347H59.1295ZM87.897 78.4269C87.3403 80.7454 86.6212 83.0218 85.745 85.2393H61.4573C60.5811 83.0218 59.862 80.7454 59.3053 78.4269H87.897ZM58.2073 67.9226C58.471 57.5556 62.7925 47.7069 70.2413 40.4972C70.7132 40.0102 71.2807 39.626 71.908 39.3689C72.5353 39.1117 73.2088 38.9871 73.8866 39.0028C74.5773 38.9976 75.2617 39.1355 75.8967 39.4078C76.5316 39.6801 77.1034 40.0809 77.576 40.585C84.8551 47.8376 89.0826 57.6042 89.3903 67.8787C89.3792 69.8906 89.262 71.9005 89.039 73.9H58.7782C58.4691 71.9207 58.2784 69.9246 58.2073 67.9226V67.9226ZM82.8463 105.633H64.5317V101.238H82.8463V105.633ZM73.3596 111.962C73.4185 111.703 73.531 111.46 73.6899 111.248C73.8488 111.036 74.0506 110.86 74.282 110.731C74.514 110.587 74.7094 110.392 74.8528 110.16H75.5117C75.7367 110.672 75.8528 111.226 75.8528 111.786C75.8528 112.346 75.7367 112.899 75.5117 113.412C75.3014 113.838 74.9834 114.202 74.5893 114.467C74.3563 114.065 74.092 113.683 73.7988 113.324C73.4912 112.939 73.335 112.454 73.3596 111.962ZM78.9813 121.015C77.288 123.682 74.7291 125.684 71.7345 126.685C71.2002 124.625 70.1756 122.725 68.748 121.147C68.1119 120.518 67.6069 119.768 67.2623 118.942C66.9176 118.116 66.7402 117.23 66.7402 116.335C66.7402 115.439 66.9176 114.553 67.2623 113.727C67.6069 112.901 68.1119 112.151 68.748 111.522C68.6025 113.11 69.0921 114.69 70.1095 115.917C70.1095 115.917 70.1095 115.917 70.1095 116.137C70.2505 116.312 70.3685 116.504 70.4608 116.708C70.3111 117.034 70.2525 117.393 70.2911 117.749C70.3298 118.106 70.4644 118.444 70.6805 118.73C70.8928 119.046 71.1808 119.305 71.5183 119.481C71.8559 119.658 72.2322 119.747 72.613 119.741H72.9643C74.246 119.51 75.4675 119.02 76.5546 118.303C77.6418 117.585 78.572 116.654 79.2888 115.565C79.4821 115.251 79.63 114.911 79.728 114.555C80.2348 116.726 79.987 119.005 79.0253 121.015H78.9813ZM48.2813 84.4482V80.0531L53.9909 74.3834C54.4875 77.8481 55.2961 81.2609 56.4065 84.58L48.2813 84.4482ZM93.475 74.1197L99.1845 79.7894V84.1845H91.0593C92.1699 80.8382 92.964 77.3949 93.431 73.9L93.475 74.1197ZM62.2478 110.379H64.2243C63.2995 111.68 62.7109 113.19 62.5113 114.774C62.2393 116.46 62.3423 118.184 62.813 119.825C63.2837 121.466 64.1105 122.983 65.2343 124.268V124.268C66.2445 125.279 67.7378 127.652 67.079 128.663C66.8444 129.03 66.7197 129.457 66.7197 129.894C66.7197 130.33 66.8444 130.757 67.079 131.124C67.282 131.45 67.5682 131.715 67.9079 131.893C68.2476 132.07 68.6286 132.154 69.0115 132.135H69.3628C72.0749 131.656 74.6611 130.63 76.9641 129.119C79.2671 127.608 81.2386 125.643 82.7585 123.345C83.8157 121.331 84.4435 119.119 84.6022 116.849C84.761 114.579 84.4473 112.302 83.6808 110.16H85.0862C85.6884 110.148 86.2628 109.904 86.6887 109.478C87.1146 109.051 87.3588 108.477 87.37 107.874V101.106H91.3667C91.7256 101.111 92.0805 101.03 92.4015 100.869C92.7225 100.709 93.0004 100.473 93.2114 100.183C93.4371 99.9034 93.5878 99.5712 93.6493 99.2174C93.7108 98.8636 93.681 98.4999 93.5627 98.1609L90.2248 88.7554H101.38C101.986 88.7554 102.567 88.5146 102.995 88.086C103.424 87.6574 103.664 87.076 103.664 86.4699V78.6466C103.658 78.3494 103.592 78.0565 103.472 77.7848C103.351 77.5132 103.178 77.2684 102.962 77.0644L93.6945 67.9226C93.3604 56.4949 88.642 45.6349 80.5185 37.5964C79.6063 36.6621 78.5167 35.9197 77.3137 35.4129C76.1107 34.9061 74.8186 34.645 73.5133 34.645C72.208 34.645 70.9159 34.9061 69.7129 35.4129C68.5099 35.9197 67.4203 36.6621 66.5081 37.5964C58.3846 45.6349 53.6662 56.4949 53.3321 67.9226L44.065 77.0644C43.8489 77.2684 43.6754 77.5132 43.5548 77.7848C43.4341 78.0565 43.3687 78.3494 43.3623 78.6466V86.4699C43.3623 87.076 43.603 87.6574 44.0313 88.086C44.4596 88.5146 45.0404 88.7554 45.6461 88.7554H57.0653L53.7273 98.1609C53.6091 98.4999 53.5794 98.8636 53.6409 99.2174C53.7024 99.5712 53.8531 99.9034 54.0788 100.183C54.297 100.465 54.5762 100.695 54.8956 100.855C55.215 101.015 55.5663 101.101 55.9233 101.106H59.9201V107.874C59.9313 108.477 60.1756 109.051 60.6015 109.478C61.0274 109.904 61.6018 110.148 62.204 110.16L62.2478 110.379Z" fill="white"/>
<path d="M73.6668 61.4616C72.9894 61.4529 72.3297 61.2433 71.7712 60.8594C71.2128 60.4755 70.7806 59.9345 70.5294 59.3048C70.2782 58.6752 70.2193 57.9851 70.36 57.3219C70.5007 56.6587 70.8347 56.052 71.3199 55.5788C71.8051 55.1055 72.4197 54.787 73.0858 54.6632C73.752 54.5395 74.4398 54.6161 75.0624 54.8836C75.685 55.151 76.2143 55.5972 76.5835 56.1657C76.9527 56.7342 77.1452 57.3995 77.1366 58.0774C77.1367 58.5294 77.0463 58.9767 76.8709 59.3931C76.6955 59.8095 76.4385 60.1866 76.1151 60.5021C75.7917 60.8175 75.4085 61.0649 74.988 61.2297C74.5675 61.3945 74.1183 61.4734 73.6668 61.4616ZM73.6668 50.1223C72.0984 50.1397 70.5703 50.6208 69.2746 51.5054C67.9789 52.39 66.9736 53.6384 66.3854 55.0935C65.7971 56.5485 65.6522 58.1452 65.9688 59.6825C66.2854 61.2199 67.0493 62.6292 68.1645 63.7329C69.2797 64.8367 70.6962 65.5857 72.2358 65.8856C73.7754 66.1855 75.3693 66.0229 76.8168 65.4183C78.2642 64.8137 79.5007 63.7941 80.3704 62.4878C81.2401 61.1816 81.704 59.6471 81.7041 58.0774C81.7042 57.0253 81.4958 55.9837 81.0908 55.0127C80.6858 54.0418 80.0924 53.1609 79.3449 52.421C78.5974 51.6811 77.7106 51.097 76.7359 50.7024C75.7613 50.3078 74.7182 50.1107 73.6668 50.1223Z" fill="white"/>
<path d="M56.5819 142.507C55.3348 142.291 54.0705 142.188 52.8047 142.2C44.7674 142.2 38.5747 145.936 38.5747 150.99C38.7346 151.445 39.0317 151.839 39.425 152.118C39.8184 152.397 40.2886 152.547 40.7707 152.547C41.2528 152.547 41.7229 152.397 42.1163 152.118C42.5096 151.839 42.8068 151.445 42.9667 150.99C42.9667 149.276 46.7438 146.902 52.5852 146.902C54.0672 146.909 55.5426 147.101 56.9772 147.474C57.2627 147.554 57.5612 147.576 57.8553 147.539C58.1495 147.503 58.4335 147.408 58.6909 147.261C58.9483 147.114 59.1738 146.917 59.3546 146.682C59.5354 146.447 59.6677 146.178 59.744 145.892C60.5346 143.167 65.9368 140.31 73.2714 140.31C80.606 140.31 86.0081 143.167 86.7987 145.892C86.9894 146.447 87.3754 146.913 87.8845 147.204C88.3936 147.495 88.9911 147.591 89.5657 147.474C91.0002 147.101 92.4756 146.909 93.9577 146.902C99.799 146.902 103.576 149.276 103.576 150.99C103.712 151.468 104.001 151.888 104.397 152.187C104.793 152.486 105.276 152.648 105.772 152.648C106.268 152.648 106.751 152.486 107.148 152.187C107.544 151.888 107.832 151.468 107.968 150.99C107.968 146.111 101.907 142.2 93.7819 142.2C92.5018 142.193 91.2235 142.296 89.9609 142.507C87.8482 140.104 85.2029 138.228 82.2363 137.03C79.2698 135.831 76.0644 135.344 72.8762 135.607C69.8131 135.428 66.7499 135.958 63.9242 137.154C61.0985 138.351 58.5863 140.183 56.5819 142.507V142.507Z" fill="white"/>
<path d="M63.9167 159.868C64.493 160.017 65.1047 159.935 65.6216 159.64C66.1384 159.344 66.5194 158.858 66.6836 158.286C67.035 157.011 69.5384 155.429 73.6669 155.429C77.7954 155.429 80.3427 157.143 80.6941 158.286C80.8053 158.77 81.0804 159.2 81.4726 159.505C81.8647 159.809 82.35 159.968 82.8461 159.956C83.0336 160.002 83.2296 160.002 83.4171 159.956C83.7058 159.889 83.9781 159.765 84.2175 159.591C84.457 159.416 84.6588 159.195 84.8106 158.94C84.9625 158.686 85.0613 158.403 85.1011 158.109C85.1409 157.815 85.1208 157.517 85.0421 157.231C83.8297 155.316 82.1532 153.738 80.1683 152.645C78.1834 151.552 75.9545 150.979 73.6889 150.979C71.4232 150.979 69.1944 151.552 67.2094 152.645C65.2245 153.738 63.548 155.316 62.3356 157.231C62.2635 157.508 62.2473 157.797 62.288 158.08C62.3287 158.364 62.4255 158.636 62.5727 158.882C62.7199 159.127 62.9147 159.341 63.1454 159.51C63.3762 159.68 63.6384 159.801 63.9167 159.868V159.868Z" fill="white"/>
<path d="M58.075 112.401C52.2434 109.742 47.2264 105.573 43.5419 100.326C39.8575 95.0786 37.6389 88.9426 37.1152 82.5509C36.5915 76.1591 37.7816 69.7433 40.5628 63.9656C43.3439 58.1878 47.6154 53.2572 52.9363 49.6828C54.0378 47.1033 55.3757 44.6315 56.933 42.2991C49.6269 45.4741 43.4175 50.7327 39.08 57.4182C34.7425 64.1037 32.4693 71.9198 32.5443 79.8904C32.6192 87.861 35.0389 95.633 39.5014 102.236C43.9638 108.838 50.2712 113.979 57.6358 117.016C57.5877 115.854 57.6612 114.69 57.8553 113.544C57.9871 113.192 57.9872 112.84 58.075 112.401Z" fill="white"/>
<path d="M90.444 42.2991C92.0014 44.6315 93.3393 47.1033 94.4408 49.6828C99.7772 53.261 104.057 58.2057 106.835 64.0016C109.613 69.7976 110.788 76.2329 110.236 82.6374C109.685 89.0418 107.427 95.1811 103.699 100.416C99.9707 105.651 94.9082 109.789 89.0386 112.401C89.298 114.013 89.3864 115.649 89.3021 117.28C96.7814 114.344 103.219 109.248 107.796 102.64C112.373 96.0323 114.882 88.2116 115.005 80.1726C115.127 72.1337 112.857 64.24 108.483 57.4958C104.11 50.7516 97.8305 45.4617 90.444 42.2991V42.2991Z" fill="white"/>
</g>
<defs>
<clipPath id="clip0_61_366">
<rect width="147" height="160" fill="white"/>
</clipPath>
</defs>
</svg>
